{
	"asset":{
		"generator":"Khronos glTF Blender I/O v4.2.70",
		"version":"2.0"
	},
	"scene":0,
	"scenes":[
		{
			"extras":{
				"uuid":"e019d216-8231-42fd-ac9d-0df0d4c39ef6",
				"assets reported":{
					"6c325403-1b52-427e-8af6-3fb5b3c904bc":true
				},
				"qremesher":{
					"target_count":50000
				},
				"assets used":{
					"6c325403-1b52-427e-8af6-3fb5b3c904bc":{
						"addonVersion":"3.12.2",
						"adult":false,
						"assetBaseId":"6c325403-1b52-427e-8af6-3fb5b3c904bc",
						"assetType":"brush",
						"author":{
							"aboutMe":"",
							"aboutMeUrl":"https://foobar404.dev",
							"avatar128":"/avatar-redirect/bf286892-4ee9-4066-a057-1f3eeff250fb/128/",
							"firstName":"Austin",
							"fullName":"Austin Michaud",
							"gravatarHash":"157e6fb72e26fc65dbe315e2b52fd81c",
							"id":"696907",
							"lastName":"Michaud",
							"socialNetworks":[]
						},
						"available_resolutions":[],
						"canDownload":true,
						"canDownloadError":true,
						"category":"fur",
						"created":"2024-07-27T18:55:32.326952+02:00",
						"description":"This brush captures the fine details of fur texture, perfect for adding a subtle and realistic fur effect in digital art and 3D modeling. The texture represents height data, providing an accurate depiction of fine fur strands for creating lifelike surfaces on characters and creatures.",
						"dictParameters":{
							"mode":"sculpt"
						},
						"displayName":"Fine Fur Brush",
						"downloaded":0,
						"files":[
							{
								"created":"2024-07-27T18:55:36.699918+02:00",
								"downloadUrl":"https://www.blenderkit.com/api/v1/downloads/429507/",
								"fileThumbnail":"",
								"fileThumbnailLarge":"",
								"fileType":"blend",
								"filename":"",
								"modified":"2024-07-27T18:55:36.699938+02:00",
								"resolution":0,
								"url":"https://public.blenderkit.com/public-assets/assets/ab9a6c8407194cbfb2f65cfcb8d17501/files/blend_0c6f9168-1f1b-4172-845b-6187895624d9.blend",
								"file_name":"G:\\blenderTraining\\assets\\brushes\\fine-fur-brush_ab9a6c84-0719-4cbf-b2f6-5cfcb8d17501\\fine-fur-brush_0c6f9168-1f1b-4172-845b-6187895624d9.blend"
							},
							{
								"created":"2024-07-27T18:55:35.139566+02:00",
								"downloadUrl":"https://www.blenderkit.com/api/v1/downloads/429506/",
								"fileThumbnail":"https://public.blenderkit.com/thumbnails/assets/ab9a6c8407194cbfb2f65cfcb8d17501/files/thumbnail_b602c4a0-b27a-430b-80e2-9e6d39beed83.png.96x96_q85_crop-%2C.png",
								"fileThumbnailLarge":"https://public.blenderkit.com/thumbnails/assets/ab9a6c8407194cbfb2f65cfcb8d17501/files/thumbnail_b602c4a0-b27a-430b-80e2-9e6d39beed83.png.1024x1024_q85_crop-%2C.png",
								"fileType":"thumbnail",
								"filename":"",
								"modified":"2024-07-27T18:55:35.139594+02:00",
								"resolution":0,
								"url":""
							}
						],
						"filesSize":5527,
						"id":"ab9a6c84-0719-4cbf-b2f6-5cfcb8d17501",
						"isFree":true,
						"isPrivate":false,
						"lastBlendUpload":"2024-07-27T16:55:36.699918+00:00",
						"lastGltfUpload":"",
						"lastResolutionUpload":"",
						"lastThumbnailUpload":"2024-07-27T16:55:35.139566+00:00",
						"lastUserInteraction":"2024-07-27T18:55:37.153389+02:00",
						"lastVideoUpload":"",
						"lastZipFileUpload":"",
						"license":"royalty_free",
						"max_resolution":0,
						"name":"Fine Fur Brush",
						"pk":101806,
						"ratingsAverage":{
							"bookmarks":1,
							"competition-2022-votes":null,
							"quality":9,
							"virtualPrice":null,
							"workingHours":1
						},
						"ratingsCount":{
							"bookmarks":37,
							"competition-2022-votes":0,
							"quality":1,
							"virtualPrice":0,
							"workingHours":1
						},
						"ratingsMedian":{
							"bookmarks":1,
							"competition-2022-votes":null,
							"quality":9,
							"virtualPrice":null,
							"workingHours":1
						},
						"ratingsSum":{
							"bookmarks":37,
							"competition-2022-votes":null,
							"quality":9,
							"score":90,
							"virtualPrice":null,
							"workingHours":1
						},
						"score":90,
						"showMarketingLabels":true,
						"sourceAppName":"blender",
						"sourceAppVersion":"4.1.1",
						"tags":[
							"fur",
							"brush",
							"fine",
							"realistic",
							"texture",
							"height",
							"detail",
							"organic",
							"natural",
							"subtle"
						],
						"thumbnail":"thumbnail_b602c4a0-b27a-430b-80e2-9e6d39beed83.png.512x512_q85_crop-%2C.png.webp",
						"thumbnailLargeUrl":"https://public.blenderkit.com/thumbnails/assets/ab9a6c8407194cbfb2f65cfcb8d17501/files/thumbnail_b602c4a0-b27a-430b-80e2-9e6d39beed83.png.1024x1024_q85_crop-%2C.png",
						"thumbnailLargeUrlNonsquared":"https://public.blenderkit.com/thumbnails/assets/ab9a6c8407194cbfb2f65cfcb8d17501/files/thumbnail_b602c4a0-b27a-430b-80e2-9e6d39beed83.png.1024x1024_q85.png",
						"thumbnailLargeUrlNonsquaredWebp":"https://public.blenderkit.com/thumbnails/assets/ab9a6c8407194cbfb2f65cfcb8d17501/files/thumbnail_b602c4a0-b27a-430b-80e2-9e6d39beed83.png.1024x1024_q85.png.webp?webp_generated=1722585987",
						"thumbnailLargeUrlWebp":"https://public.blenderkit.com/thumbnails/assets/ab9a6c8407194cbfb2f65cfcb8d17501/files/thumbnail_b602c4a0-b27a-430b-80e2-9e6d39beed83.png.1024x1024_q85_crop-%2C.png.webp?webp_generated=1722585987",
						"thumbnailMiddleUrl":"https://public.blenderkit.com/thumbnails/assets/ab9a6c8407194cbfb2f65cfcb8d17501/files/thumbnail_b602c4a0-b27a-430b-80e2-9e6d39beed83.png.512x512_q85_crop-%2C.png",
						"thumbnailMiddleUrlNonsquared":"https://public.blenderkit.com/thumbnails/assets/ab9a6c8407194cbfb2f65cfcb8d17501/files/thumbnail_b602c4a0-b27a-430b-80e2-9e6d39beed83.png.512x512_q85.png",
						"thumbnailMiddleUrlNonsquaredWebp":"https://public.blenderkit.com/thumbnails/assets/ab9a6c8407194cbfb2f65cfcb8d17501/files/thumbnail_b602c4a0-b27a-430b-80e2-9e6d39beed83.png.512x512_q85.png.webp?webp_generated=1722585987",
						"thumbnailMiddleUrlWebp":"https://public.blenderkit.com/thumbnails/assets/ab9a6c8407194cbfb2f65cfcb8d17501/files/thumbnail_b602c4a0-b27a-430b-80e2-9e6d39beed83.png.512x512_q85_crop-%2C.png.webp?webp_generated=1722585987",
						"thumbnailSmallUrl":"https://public.blenderkit.com/thumbnails/assets/ab9a6c8407194cbfb2f65cfcb8d17501/files/thumbnail_b602c4a0-b27a-430b-80e2-9e6d39beed83.png.256x256_q85_crop-%2C.png",
						"thumbnailSmallUrlNonsquared":"https://public.blenderkit.com/thumbnails/assets/ab9a6c8407194cbfb2f65cfcb8d17501/files/thumbnail_b602c4a0-b27a-430b-80e2-9e6d39beed83.png.256x256_q85.png",
						"thumbnailSmallUrlNonsquaredWebp":"https://public.blenderkit.com/thumbnails/assets/ab9a6c8407194cbfb2f65cfcb8d17501/files/thumbnail_b602c4a0-b27a-430b-80e2-9e6d39beed83.png.256x256_q85.png.webp?webp_generated=1722585987",
						"thumbnailSmallUrlWebp":"https://public.blenderkit.com/thumbnails/assets/ab9a6c8407194cbfb2f65cfcb8d17501/files/thumbnail_b602c4a0-b27a-430b-80e2-9e6d39beed83.png.256x256_q85_crop-%2C.png.webp?webp_generated=1722585987",
						"thumbnailXlargeUrl":"https://public.blenderkit.com/thumbnails/assets/ab9a6c8407194cbfb2f65cfcb8d17501/files/thumbnail_b602c4a0-b27a-430b-80e2-9e6d39beed83.png.2048x2048_q85_crop-%2C.png",
						"thumbnailXlargeUrlNonsquared":"https://public.blenderkit.com/thumbnails/assets/ab9a6c8407194cbfb2f65cfcb8d17501/files/thumbnail_b602c4a0-b27a-430b-80e2-9e6d39beed83.png.2048x2048_q85.png",
						"thumbnailXlargeUrlNonsquaredWebp":"https://public.blenderkit.com/thumbnails/assets/ab9a6c8407194cbfb2f65cfcb8d17501/files/thumbnail_b602c4a0-b27a-430b-80e2-9e6d39beed83.png.2048x2048_q85.png.webp?webp_generated=1722585987",
						"thumbnailXlargeUrlWebp":"https://public.blenderkit.com/thumbnails/assets/ab9a6c8407194cbfb2f65cfcb8d17501/files/thumbnail_b602c4a0-b27a-430b-80e2-9e6d39beed83.png.2048x2048_q85_crop-%2C.png.webp?webp_generated=1722585987",
						"thumbnail_small":"thumbnail_b602c4a0-b27a-430b-80e2-9e6d39beed83.png.256x256_q85_crop-%2C.png.webp",
						"tooltip_data":{
							"aname":"Fine Fur Brush",
							"author_text":"by Austin Michaud",
							"quality":"9"
						},
						"url":"https://www.blenderkit.com/api/v1/assets/ab9a6c84-0719-4cbf-b2f6-5cfcb8d17501/",
						"verificationStatus":"validated",
						"versionNumber":1,
						"webpGeneratedTimestamp":1722585987,
						"resolution":"resolution_2K"
					}
				},
				"arp_active_tab":0,
				"arp_bind_scale_fix":1,
				"arp_ge_fp":"G:\\bevyloadmodel\\standingholdingjaw_separate.glb",
				"arp_export_show_panels":1,
				"arp_bake_only_active":0,
				"arp_ignore_linked_actions":1,
				"arp_engine_type":3,
				"arp_export_bake_axis_convert":0,
				"arp_ge_master_traj":0,
				"arp_ge_bake_sample":1.0,
				"arp_ge_gltf_format":1
			},
			"name":"Scene",
			"nodes":[
				32
			]
		}
	],
	"nodes":[
		{
			"extras":{
				"softlink":false
			},
			"name":"head.x",
			"rotation":[
				-0.15306749939918518,
				-0.006914827041327953,
				-0.004410166759043932,
				0.9881817102432251
			],
			"scale":[
				1,
				0.9999999403953552,
				1.0000001192092896
			],
			"translation":[
				1.311946107307449e-10,
				0.5691874027252197,
				1.6414058734426362e-07
			]
		},
		{
			"children":[
				0
			],
			"extras":{
				"softlink":false
			},
			"name":"neck.x",
			"rotation":[
				0.207550510764122,
				0.0070072622038424015,
				0.00694884080439806,
				0.9781745672225952
			],
			"scale":[
				1,
				0.9999999403953552,
				0.9999999403953552
			],
			"translation":[
				-2.901856532844249e-10,
				0.8595609664916992,
				-4.848629941989202e-09
			]
		},
		{
			"extras":{
				"softlink":false
			},
			"name":"arm_twist.r",
			"rotation":[
				-3.91155481338501e-08,
				1.7695128917694092e-08,
				-5.587935447692871e-09,
				1
			],
			"scale":[
				1,
				0.9999998807907104,
				1
			],
			"translation":[
				7.264316082000732e-08,
				1.1757947504520416e-07,
				9.12696123123169e-08
			]
		},
		{
			"extras":{
				"softlink":false
			},
			"name":"forearm_twist.r",
			"rotation":[
				1.0604945810399613e-09,
				0.22547058761119843,
				-4.7796905322528e-10,
				0.9742500185966492
			],
			"scale":[
				0.9999999403953552,
				0.9999999403953552,
				1
			],
			"translation":[
				-4.6566128730773926e-08,
				0.36896389722824097,
				-5.774199962615967e-08
			]
		},
		{
			"extras":{
				"softlink":false
			},
			"name":"hand.r",
			"rotation":[
				-0.07459229975938797,
				0.22611470520496368,
				-0.0012023303424939513,
				0.9712397456169128
			],
			"scale":[
				1,
				1.0000001192092896,
				1
			],
			"translation":[
				-5.448237061500549e-08,
				0.7379279136657715,
				-1.860898919403553e-07
			]
		},
		{
			"children":[
				3,
				4
			],
			"extras":{
				"softlink":false
			},
			"name":"forearm_stretch.r",
			"rotation":[
				-7.886695385650455e-08,
				2.0066739381263687e-08,
				0.06566128879785538,
				0.997842013835907
			],
			"scale":[
				1,
				0.9999999403953552,
				1
			],
			"translation":[
				3.3527612686157227e-08,
				0.8666468858718872,
				-4.6566128730773926e-08
			]
		},
		{
			"children":[
				2,
				5
			],
			"extras":{
				"softlink":false
			},
			"name":"arm_stretch.r",
			"rotation":[
				-0.5852401256561279,
				-0.1754748672246933,
				0.07543361932039261,
				0.7880433201789856
			],
			"scale":[
				1,
				1.0000001192092896,
				1.0000001192092896
			],
			"translation":[
				-9.313225746154785e-10,
				0.4043118953704834,
				4.389412424643524e-07
			]
		},
		{
			"children":[
				6
			],
			"extras":{
				"softlink":false
			},
			"name":"shoulder.r",
			"rotation":[
				-0.46039119362831116,
				0.5152290463447571,
				0.5203028917312622,
				0.5018604397773743
			],
			"scale":[
				0.9999998807907104,
				0.9999998211860657,
				0.9999997615814209
			],
			"translation":[
				-0.09088164567947388,
				0.6634509563446045,
				-0.011123853735625744
			]
		},
		{
			"extras":{
				"softlink":false
			},
			"name":"arm_twist.l",
			"rotation":[
				-5.587935447692871e-09,
				8.381902460996571e-08,
				5.587935447692871e-09,
				1
			],
			"scale":[
				1.0000001192092896,
				1,
				1.0000001192092896
			],
			"translation":[
				2.7939677238464355e-09,
				-7.502967491745949e-08,
				5.9138983488082886e-08
			]
		},
		{
			"extras":{
				"softlink":false
			},
			"name":"forearm_twist.l",
			"rotation":[
				-2.0343559725688465e-08,
				-0.22547069191932678,
				1.4697548067488242e-08,
				0.9742499589920044
			],
			"scale":[
				0.9999998807907104,
				0.9999998211860657,
				0.9999999403953552
			],
			"translation":[
				-3.725290298461914e-09,
				0.3689638376235962,
				6.05359673500061e-08
			]
		},
		{
			"extras":{
				"softlink":false
			},
			"name":"hand.l",
			"rotation":[
				-0.07459232211112976,
				-0.22611476480960846,
				0.0012023341841995716,
				0.9712397456169128
			],
			"scale":[
				1,
				0.9999999403953552,
				1.0000001192092896
			],
			"translation":[
				-1.9674189388751984e-08,
				0.7379279136657715,
				-7.566995918750763e-09
			]
		},
		{
			"children":[
				9,
				10
			],
			"extras":{
				"softlink":false
			},
			"name":"forearm_stretch.l",
			"rotation":[
				-2.7533431534720876e-08,
				-9.333366079999905e-09,
				-0.06566130369901657,
				0.997842013835907
			],
			"scale":[
				1,
				1,
				1.0000001192092896
			],
			"translation":[
				-3.3527612686157227e-08,
				0.8666467070579529,
				1.1734664440155029e-07
			]
		},
		{
			"children":[
				8,
				11
			],
			"extras":{
				"softlink":false
			},
			"name":"arm_stretch.l",
			"rotation":[
				-0.5852401852607727,
				0.17547498643398285,
				-0.07543368637561798,
				0.7880432605743408
			],
			"translation":[
				-5.587935447692871e-09,
				0.4043119549751282,
				-2.1085725165903568e-08
			]
		},
		{
			"children":[
				12
			],
			"extras":{
				"softlink":false
			},
			"name":"shoulder.l",
			"rotation":[
				-0.458050400018692,
				-0.5173173546791077,
				-0.5181679725646973,
				0.5040581822395325
			],
			"scale":[
				0.9999999403953552,
				1,
				0.9999999403953552
			],
			"translation":[
				0.08506643027067184,
				0.6642223000526428,
				-0.011097327806055546
			]
		},
		{
			"children":[
				1,
				7,
				13
			],
			"extras":{
				"softlink":false
			},
			"name":"spine_02.x",
			"rotation":[
				-0.02292870171368122,
				0.00345859513618052,
				-0.007924942299723625,
				0.9996997117996216
			],
			"scale":[
				1,
				1,
				0.9999998807907104
			],
			"translation":[
				2.8580018351931358e-09,
				0.6483762264251709,
				5.62189517161471e-10
			]
		},
		{
			"children":[
				14
			],
			"extras":{
				"softlink":false
			},
			"name":"spine_01.x",
			"rotation":[
				-0.01248209085315466,
				-0.0031326471362262964,
				0.005851821042597294,
				0.9999001026153564
			],
			"scale":[
				0.9999999403953552,
				0.9999998807907104,
				1
			],
			"translation":[
				-4.297362465877086e-10,
				0.5022081136703491,
				9.089262675843202e-10
			]
		},
		{
			"extras":{
				"softlink":false
			},
			"name":"thigh_twist.l",
			"rotation":[
				8.381903171539307e-09,
				4.9243681132793427e-08,
				1.303851515643828e-08,
				1
			],
			"scale":[
				1,
				1.0000001192092896,
				1
			],
			"translation":[
				7.450580596923828e-09,
				2.2724270820617676e-07,
				-7.450580596923828e-09
			]
		},
		{
			"extras":{
				"softlink":false
			},
			"name":"toes_01.l",
			"rotation":[
				9.377852450143109e-08,
				-0.9761867523193359,
				-0.21693192422389984,
				6.555526965712488e-07
			],
			"scale":[
				1,
				0.9999995827674866,
				0.9999999403953552
			],
			"translation":[
				-1.2513575065042915e-08,
				0.22026129066944122,
				-9.532854505778232e-09
			]
		},
		{
			"children":[
				17
			],
			"extras":{
				"softlink":false
			},
			"name":"foot.l",
			"rotation":[
				0.3381390869617462,
				0.7093736529350281,
				-0.5000659227371216,
				0.363847553730011
			],
			"scale":[
				1.0000001192092896,
				1.000000238418579,
				1.0000001192092896
			],
			"translation":[
				1.1175870895385742e-08,
				0.5927592515945435,
				-2.3283064365386963e-10
			]
		},
		{
			"extras":{
				"softlink":false
			},
			"name":"leg_twist.l",
			"rotation":[
				-9.778887033462524e-09,
				-5.174661765749988e-08,
				1.862645326866641e-08,
				1
			],
			"scale":[
				0.9999999403953552,
				1,
				0.9999999403953552
			],
			"translation":[
				1.4901161193847656e-08,
				0.29637959599494934,
				-1.816079020500183e-08
			]
		},
		{
			"children":[
				18,
				19
			],
			"extras":{
				"softlink":false
			},
			"name":"leg_stretch.l",
			"rotation":[
				1.5735875535938249e-07,
				1.1914815445379645e-07,
				0.20141419768333435,
				0.9795061945915222
			],
			"translation":[
				-2.0489096641540527e-08,
				0.7350506782531738,
				1.0244548320770264e-08
			]
		},
		{
			"children":[
				16,
				20
			],
			"extras":{
				"softlink":false
			},
			"name":"thigh_stretch.l",
			"rotation":[
				0.8665428161621094,
				0.09260830283164978,
				0.48555484414100647,
				0.06901998817920685
			],
			"scale":[
				1.000000238418579,
				1.0000001192092896,
				1.000001072883606
			],
			"translation":[
				0.39504265785217285,
				0.0203128382563591,
				-0.14224551618099213
			]
		},
		{
			"extras":{
				"softlink":false
			},
			"name":"thigh_twist.r",
			"rotation":[
				-4.6566128730773926e-09,
				-4.5460183173418045e-08,
				1.5832483768463135e-08,
				1
			],
			"scale":[
				1,
				1,
				0.9999999403953552
			],
			"translation":[
				5.960464477539063e-08,
				1.9185245037078857e-07,
				1.862645149230957e-09
			]
		},
		{
			"extras":{
				"softlink":false
			},
			"name":"toes_01.r",
			"rotation":[
				6.791830742258753e-08,
				0.9761867523193359,
				0.21693187952041626,
				6.555526965712488e-07
			],
			"scale":[
				1,
				0.9999997615814209,
				1
			],
			"translation":[
				1.3988987745960912e-09,
				0.22026129066944122,
				-1.0480249557076604e-08
			]
		},
		{
			"children":[
				23
			],
			"extras":{
				"softlink":false
			},
			"name":"foot.r",
			"rotation":[
				0.33813896775245667,
				-0.7093737125396729,
				0.5000659823417664,
				0.3638475239276886
			],
			"scale":[
				1,
				1.0000001192092896,
				1
			],
			"translation":[
				9.313225746154785e-09,
				0.5927593111991882,
				2.0721927285194397e-08
			]
		},
		{
			"extras":{
				"softlink":false
			},
			"name":"leg_twist.r",
			"rotation":[
				-1.862645371275562e-09,
				4.237517714500427e-08,
				-1.9557775843281888e-08,
				1
			],
			"scale":[
				1,
				0.9999999403953552,
				1
			],
			"translation":[
				-3.725290298461914e-09,
				0.29637962579727173,
				3.725290298461914e-08
			]
		},
		{
			"children":[
				24,
				25
			],
			"extras":{
				"softlink":false
			},
			"name":"leg_stretch.r",
			"rotation":[
				2.2248913467137754e-07,
				-1.0452947662997758e-07,
				-0.20141413807868958,
				0.9795061945915222
			],
			"scale":[
				1,
				0.9999999403953552,
				1
			],
			"translation":[
				-3.259629011154175e-09,
				0.7350507378578186,
				7.916241884231567e-09
			]
		},
		{
			"children":[
				22,
				26
			],
			"extras":{
				"softlink":false
			},
			"name":"thigh_stretch.r",
			"rotation":[
				0.8664498925209045,
				-0.09259506314992905,
				-0.4857206642627716,
				0.06903773546218872
			],
			"scale":[
				1.000000238418579,
				1,
				1.000001072883606
			],
			"translation":[
				-0.41016486287117004,
				0.020312711596488953,
				-0.14209133386611938
			]
		},
		{
			"children":[
				15,
				21,
				27
			],
			"extras":{
				"softlink":false
			},
			"name":"root.x",
			"rotation":[
				0.012502117082476616,
				-9.573595889378339e-05,
				-1.2011703347525327e-06,
				0.9999218583106995
			],
			"translation":[
				0.007533882278949022,
				1.2601796388626099,
				-0.000252600759267807
			]
		},
		{
			"mesh":0,
			"name":"eye",
			"skin":0
		},
		{
			"mesh":1,
			"name":"eye.001",
			"skin":0
		},
		{
			"mesh":2,
			"name":"Retopo_horseBodyRemesh.001",
			"skin":0
		},
		{
			"children":[
				29,
				30,
				31,
				28
			],
			"extras":{
				"set":true,
				"binded":false,
				"arp_rig_name":"rig_arpbob"
			},
			"name":"root",
			"translation":[
				0,
				0.15980485081672668,
				0.013018405064940453
			]
		}
	],
	"animations":[
		{
			"channels":[
				{
					"sampler":0,
					"target":{
						"node":28,
						"path":"translation"
					}
				},
				{
					"sampler":1,
					"target":{
						"node":28,
						"path":"rotation"
					}
				},
				{
					"sampler":2,
					"target":{
						"node":28,
						"path":"scale"
					}
				},
				{
					"sampler":3,
					"target":{
						"node":15,
						"path":"translation"
					}
				},
				{
					"sampler":4,
					"target":{
						"node":15,
						"path":"rotation"
					}
				},
				{
					"sampler":5,
					"target":{
						"node":15,
						"path":"scale"
					}
				},
				{
					"sampler":6,
					"target":{
						"node":14,
						"path":"translation"
					}
				},
				{
					"sampler":7,
					"target":{
						"node":14,
						"path":"rotation"
					}
				},
				{
					"sampler":8,
					"target":{
						"node":14,
						"path":"scale"
					}
				},
				{
					"sampler":9,
					"target":{
						"node":1,
						"path":"translation"
					}
				},
				{
					"sampler":10,
					"target":{
						"node":1,
						"path":"rotation"
					}
				},
				{
					"sampler":11,
					"target":{
						"node":1,
						"path":"scale"
					}
				},
				{
					"sampler":12,
					"target":{
						"node":0,
						"path":"translation"
					}
				},
				{
					"sampler":13,
					"target":{
						"node":0,
						"path":"rotation"
					}
				},
				{
					"sampler":14,
					"target":{
						"node":0,
						"path":"scale"
					}
				},
				{
					"sampler":15,
					"target":{
						"node":7,
						"path":"translation"
					}
				},
				{
					"sampler":16,
					"target":{
						"node":7,
						"path":"rotation"
					}
				},
				{
					"sampler":17,
					"target":{
						"node":7,
						"path":"scale"
					}
				},
				{
					"sampler":18,
					"target":{
						"node":6,
						"path":"translation"
					}
				},
				{
					"sampler":19,
					"target":{
						"node":6,
						"path":"rotation"
					}
				},
				{
					"sampler":20,
					"target":{
						"node":6,
						"path":"scale"
					}
				},
				{
					"sampler":21,
					"target":{
						"node":2,
						"path":"translation"
					}
				},
				{
					"sampler":22,
					"target":{
						"node":2,
						"path":"rotation"
					}
				},
				{
					"sampler":23,
					"target":{
						"node":2,
						"path":"scale"
					}
				},
				{
					"sampler":24,
					"target":{
						"node":5,
						"path":"translation"
					}
				},
				{
					"sampler":25,
					"target":{
						"node":5,
						"path":"rotation"
					}
				},
				{
					"sampler":26,
					"target":{
						"node":5,
						"path":"scale"
					}
				},
				{
					"sampler":27,
					"target":{
						"node":3,
						"path":"translation"
					}
				},
				{
					"sampler":28,
					"target":{
						"node":3,
						"path":"rotation"
					}
				},
				{
					"sampler":29,
					"target":{
						"node":3,
						"path":"scale"
					}
				},
				{
					"sampler":30,
					"target":{
						"node":4,
						"path":"translation"
					}
				},
				{
					"sampler":31,
					"target":{
						"node":4,
						"path":"rotation"
					}
				},
				{
					"sampler":32,
					"target":{
						"node":4,
						"path":"scale"
					}
				},
				{
					"sampler":33,
					"target":{
						"node":13,
						"path":"translation"
					}
				},
				{
					"sampler":34,
					"target":{
						"node":13,
						"path":"rotation"
					}
				},
				{
					"sampler":35,
					"target":{
						"node":13,
						"path":"scale"
					}
				},
				{
					"sampler":36,
					"target":{
						"node":12,
						"path":"translation"
					}
				},
				{
					"sampler":37,
					"target":{
						"node":12,
						"path":"rotation"
					}
				},
				{
					"sampler":38,
					"target":{
						"node":12,
						"path":"scale"
					}
				},
				{
					"sampler":39,
					"target":{
						"node":8,
						"path":"translation"
					}
				},
				{
					"sampler":40,
					"target":{
						"node":8,
						"path":"rotation"
					}
				},
				{
					"sampler":41,
					"target":{
						"node":8,
						"path":"scale"
					}
				},
				{
					"sampler":42,
					"target":{
						"node":11,
						"path":"translation"
					}
				},
				{
					"sampler":43,
					"target":{
						"node":11,
						"path":"rotation"
					}
				},
				{
					"sampler":44,
					"target":{
						"node":11,
						"path":"scale"
					}
				},
				{
					"sampler":45,
					"target":{
						"node":9,
						"path":"translation"
					}
				},
				{
					"sampler":46,
					"target":{
						"node":9,
						"path":"rotation"
					}
				},
				{
					"sampler":47,
					"target":{
						"node":9,
						"path":"scale"
					}
				},
				{
					"sampler":48,
					"target":{
						"node":10,
						"path":"translation"
					}
				},
				{
					"sampler":49,
					"target":{
						"node":10,
						"path":"rotation"
					}
				},
				{
					"sampler":50,
					"target":{
						"node":10,
						"path":"scale"
					}
				},
				{
					"sampler":51,
					"target":{
						"node":21,
						"path":"translation"
					}
				},
				{
					"sampler":52,
					"target":{
						"node":21,
						"path":"rotation"
					}
				},
				{
					"sampler":53,
					"target":{
						"node":21,
						"path":"scale"
					}
				},
				{
					"sampler":54,
					"target":{
						"node":16,
						"path":"translation"
					}
				},
				{
					"sampler":55,
					"target":{
						"node":16,
						"path":"rotation"
					}
				},
				{
					"sampler":56,
					"target":{
						"node":16,
						"path":"scale"
					}
				},
				{
					"sampler":57,
					"target":{
						"node":20,
						"path":"translation"
					}
				},
				{
					"sampler":58,
					"target":{
						"node":20,
						"path":"rotation"
					}
				},
				{
					"sampler":59,
					"target":{
						"node":20,
						"path":"scale"
					}
				},
				{
					"sampler":60,
					"target":{
						"node":18,
						"path":"translation"
					}
				},
				{
					"sampler":61,
					"target":{
						"node":18,
						"path":"rotation"
					}
				},
				{
					"sampler":62,
					"target":{
						"node":18,
						"path":"scale"
					}
				},
				{
					"sampler":63,
					"target":{
						"node":17,
						"path":"translation"
					}
				},
				{
					"sampler":64,
					"target":{
						"node":17,
						"path":"rotation"
					}
				},
				{
					"sampler":65,
					"target":{
						"node":17,
						"path":"scale"
					}
				},
				{
					"sampler":66,
					"target":{
						"node":19,
						"path":"translation"
					}
				},
				{
					"sampler":67,
					"target":{
						"node":19,
						"path":"rotation"
					}
				},
				{
					"sampler":68,
					"target":{
						"node":19,
						"path":"scale"
					}
				},
				{
					"sampler":69,
					"target":{
						"node":27,
						"path":"translation"
					}
				},
				{
					"sampler":70,
					"target":{
						"node":27,
						"path":"rotation"
					}
				},
				{
					"sampler":71,
					"target":{
						"node":27,
						"path":"scale"
					}
				},
				{
					"sampler":72,
					"target":{
						"node":22,
						"path":"translation"
					}
				},
				{
					"sampler":73,
					"target":{
						"node":22,
						"path":"rotation"
					}
				},
				{
					"sampler":74,
					"target":{
						"node":22,
						"path":"scale"
					}
				},
				{
					"sampler":75,
					"target":{
						"node":26,
						"path":"translation"
					}
				},
				{
					"sampler":76,
					"target":{
						"node":26,
						"path":"rotation"
					}
				},
				{
					"sampler":77,
					"target":{
						"node":26,
						"path":"scale"
					}
				},
				{
					"sampler":78,
					"target":{
						"node":24,
						"path":"translation"
					}
				},
				{
					"sampler":79,
					"target":{
						"node":24,
						"path":"rotation"
					}
				},
				{
					"sampler":80,
					"target":{
						"node":24,
						"path":"scale"
					}
				},
				{
					"sampler":81,
					"target":{
						"node":23,
						"path":"translation"
					}
				},
				{
					"sampler":82,
					"target":{
						"node":23,
						"path":"rotation"
					}
				},
				{
					"sampler":83,
					"target":{
						"node":23,
						"path":"scale"
					}
				},
				{
					"sampler":84,
					"target":{
						"node":25,
						"path":"translation"
					}
				},
				{
					"sampler":85,
					"target":{
						"node":25,
						"path":"rotation"
					}
				},
				{
					"sampler":86,
					"target":{
						"node":25,
						"path":"scale"
					}
				},
				{
					"sampler":87,
					"target":{
						"node":32,
						"path":"translation"
					}
				},
				{
					"sampler":88,
					"target":{
						"node":32,
						"path":"rotation"
					}
				},
				{
					"sampler":89,
					"target":{
						"node":32,
						"path":"scale"
					}
				}
			],
			"extras":{
				"arp_baked_action":1,
				"arp_export":true
			},
			"name":"walking",
			"samplers":[
				{
					"input":19,
					"interpolation":"LINEAR",
					"output":20
				},
				{
					"input":19,
					"interpolation":"LINEAR",
					"output":21
				},
				{
					"input":19,
					"interpolation":"LINEAR",
					"output":22
				},
				{
					"input":19,
					"interpolation":"LINEAR",
					"output":23
				},
				{
					"input":19,
					"interpolation":"LINEAR",
					"output":24
				},
				{
					"input":19,
					"interpolation":"LINEAR",
					"output":25
				},
				{
					"input":19,
					"interpolation":"LINEAR",
					"output":26
				},
				{
					"input":19,
					"interpolation":"LINEAR",
					"output":27
				},
				{
					"input":19,
					"interpolation":"LINEAR",
					"output":28
				},
				{
					"input":19,
					"interpolation":"LINEAR",
					"output":29
				},
				{
					"input":19,
					"interpolation":"LINEAR",
					"output":30
				},
				{
					"input":19,
					"interpolation":"LINEAR",
					"output":31
				},
				{
					"input":19,
					"interpolation":"LINEAR",
					"output":32
				},
				{
					"input":19,
					"interpolation":"LINEAR",
					"output":33
				},
				{
					"input":19,
					"interpolation":"LINEAR",
					"output":34
				},
				{
					"input":19,
					"interpolation":"LINEAR",
					"output":35
				},
				{
					"input":19,
					"interpolation":"LINEAR",
					"output":36
				},
				{
					"input":19,
					"interpolation":"LINEAR",
					"output":37
				},
				{
					"input":19,
					"interpolation":"LINEAR",
					"output":38
				},
				{
					"input":19,
					"interpolation":"LINEAR",
					"output":39
				},
				{
					"input":19,
					"interpolation":"LINEAR",
					"output":40
				},
				{
					"input":19,
					"interpolation":"LINEAR",
					"output":41
				},
				{
					"input":19,
					"interpolation":"LINEAR",
					"output":42
				},
				{
					"input":19,
					"interpolation":"LINEAR",
					"output":43
				},
				{
					"input":19,
					"interpolation":"LINEAR",
					"output":44
				},
				{
					"input":19,
					"interpolation":"LINEAR",
					"output":45
				},
				{
					"input":19,
					"interpolation":"LINEAR",
					"output":46
				},
				{
					"input":19,
					"interpolation":"LINEAR",
					"output":47
				},
				{
					"input":19,
					"interpolation":"LINEAR",
					"output":48
				},
				{
					"input":19,
					"interpolation":"LINEAR",
					"output":49
				},
				{
					"input":19,
					"interpolation":"LINEAR",
					"output":50
				},
				{
					"input":19,
					"interpolation":"LINEAR",
					"output":51
				},
				{
					"input":19,
					"interpolation":"LINEAR",
					"output":52
				},
				{
					"input":19,
					"interpolation":"LINEAR",
					"output":53
				},
				{
					"input":19,
					"interpolation":"LINEAR",
					"output":54
				},
				{
					"input":19,
					"interpolation":"LINEAR",
					"output":55
				},
				{
					"input":19,
					"interpolation":"LINEAR",
					"output":56
				},
				{
					"input":19,
					"interpolation":"LINEAR",
					"output":57
				},
				{
					"input":19,
					"interpolation":"LINEAR",
					"output":58
				},
				{
					"input":19,
					"interpolation":"LINEAR",
					"output":59
				},
				{
					"input":19,
					"interpolation":"LINEAR",
					"output":60
				},
				{
					"input":19,
					"interpolation":"LINEAR",
					"output":61
				},
				{
					"input":19,
					"interpolation":"LINEAR",
					"output":62
				},
				{
					"input":19,
					"interpolation":"LINEAR",
					"output":63
				},
				{
					"input":19,
					"interpolation":"LINEAR",
					"output":64
				},
				{
					"input":19,
					"interpolation":"LINEAR",
					"output":65
				},
				{
					"input":19,
					"interpolation":"LINEAR",
					"output":66
				},
				{
					"input":19,
					"interpolation":"LINEAR",
					"output":67
				},
				{
					"input":19,
					"interpolation":"LINEAR",
					"output":68
				},
				{
					"input":19,
					"interpolation":"LINEAR",
					"output":69
				},
				{
					"input":19,
					"interpolation":"LINEAR",
					"output":70
				},
				{
					"input":19,
					"interpolation":"LINEAR",
					"output":71
				},
				{
					"input":19,
					"interpolation":"LINEAR",
					"output":72
				},
				{
					"input":19,
					"interpolation":"LINEAR",
					"output":73
				},
				{
					"input":19,
					"interpolation":"LINEAR",
					"output":74
				},
				{
					"input":19,
					"interpolation":"LINEAR",
					"output":75
				},
				{
					"input":19,
					"interpolation":"LINEAR",
					"output":76
				},
				{
					"input":19,
					"interpolation":"LINEAR",
					"output":77
				},
				{
					"input":19,
					"interpolation":"LINEAR",
					"output":78
				},
				{
					"input":19,
					"interpolation":"LINEAR",
					"output":79
				},
				{
					"input":19,
					"interpolation":"LINEAR",
					"output":80
				},
				{
					"input":19,
					"interpolation":"LINEAR",
					"output":81
				},
				{
					"input":19,
					"interpolation":"LINEAR",
					"output":82
				},
				{
					"input":19,
					"interpolation":"LINEAR",
					"output":83
				},
				{
					"input":19,
					"interpolation":"LINEAR",
					"output":84
				},
				{
					"input":19,
					"interpolation":"LINEAR",
					"output":85
				},
				{
					"input":19,
					"interpolation":"LINEAR",
					"output":86
				},
				{
					"input":19,
					"interpolation":"LINEAR",
					"output":87
				},
				{
					"input":19,
					"interpolation":"LINEAR",
					"output":88
				},
				{
					"input":19,
					"interpolation":"LINEAR",
					"output":89
				},
				{
					"input":19,
					"interpolation":"LINEAR",
					"output":90
				},
				{
					"input":19,
					"interpolation":"LINEAR",
					"output":91
				},
				{
					"input":19,
					"interpolation":"LINEAR",
					"output":92
				},
				{
					"input":19,
					"interpolation":"LINEAR",
					"output":93
				},
				{
					"input":19,
					"interpolation":"LINEAR",
					"output":94
				},
				{
					"input":19,
					"interpolation":"LINEAR",
					"output":95
				},
				{
					"input":19,
					"interpolation":"LINEAR",
					"output":96
				},
				{
					"input":19,
					"interpolation":"LINEAR",
					"output":97
				},
				{
					"input":19,
					"interpolation":"LINEAR",
					"output":98
				},
				{
					"input":19,
					"interpolation":"LINEAR",
					"output":99
				},
				{
					"input":19,
					"interpolation":"LINEAR",
					"output":100
				},
				{
					"input":19,
					"interpolation":"LINEAR",
					"output":101
				},
				{
					"input":19,
					"interpolation":"LINEAR",
					"output":102
				},
				{
					"input":19,
					"interpolation":"LINEAR",
					"output":103
				},
				{
					"input":19,
					"interpolation":"LINEAR",
					"output":104
				},
				{
					"input":19,
					"interpolation":"LINEAR",
					"output":105
				},
				{
					"input":19,
					"interpolation":"LINEAR",
					"output":106
				},
				{
					"input":19,
					"interpolation":"LINEAR",
					"output":107
				},
				{
					"input":19,
					"interpolation":"LINEAR",
					"output":108
				},
				{
					"input":19,
					"interpolation":"LINEAR",
					"output":109
				}
			]
		},
		{
			"channels":[
				{
					"sampler":0,
					"target":{
						"node":28,
						"path":"translation"
					}
				},
				{
					"sampler":1,
					"target":{
						"node":28,
						"path":"rotation"
					}
				},
				{
					"sampler":2,
					"target":{
						"node":28,
						"path":"scale"
					}
				},
				{
					"sampler":3,
					"target":{
						"node":15,
						"path":"translation"
					}
				},
				{
					"sampler":4,
					"target":{
						"node":15,
						"path":"rotation"
					}
				},
				{
					"sampler":5,
					"target":{
						"node":15,
						"path":"scale"
					}
				},
				{
					"sampler":6,
					"target":{
						"node":14,
						"path":"translation"
					}
				},
				{
					"sampler":7,
					"target":{
						"node":14,
						"path":"rotation"
					}
				},
				{
					"sampler":8,
					"target":{
						"node":14,
						"path":"scale"
					}
				},
				{
					"sampler":9,
					"target":{
						"node":1,
						"path":"translation"
					}
				},
				{
					"sampler":10,
					"target":{
						"node":1,
						"path":"rotation"
					}
				},
				{
					"sampler":11,
					"target":{
						"node":1,
						"path":"scale"
					}
				},
				{
					"sampler":12,
					"target":{
						"node":0,
						"path":"translation"
					}
				},
				{
					"sampler":13,
					"target":{
						"node":0,
						"path":"rotation"
					}
				},
				{
					"sampler":14,
					"target":{
						"node":0,
						"path":"scale"
					}
				},
				{
					"sampler":15,
					"target":{
						"node":7,
						"path":"translation"
					}
				},
				{
					"sampler":16,
					"target":{
						"node":7,
						"path":"rotation"
					}
				},
				{
					"sampler":17,
					"target":{
						"node":7,
						"path":"scale"
					}
				},
				{
					"sampler":18,
					"target":{
						"node":6,
						"path":"translation"
					}
				},
				{
					"sampler":19,
					"target":{
						"node":6,
						"path":"rotation"
					}
				},
				{
					"sampler":20,
					"target":{
						"node":6,
						"path":"scale"
					}
				},
				{
					"sampler":21,
					"target":{
						"node":2,
						"path":"translation"
					}
				},
				{
					"sampler":22,
					"target":{
						"node":2,
						"path":"rotation"
					}
				},
				{
					"sampler":23,
					"target":{
						"node":2,
						"path":"scale"
					}
				},
				{
					"sampler":24,
					"target":{
						"node":5,
						"path":"translation"
					}
				},
				{
					"sampler":25,
					"target":{
						"node":5,
						"path":"rotation"
					}
				},
				{
					"sampler":26,
					"target":{
						"node":5,
						"path":"scale"
					}
				},
				{
					"sampler":27,
					"target":{
						"node":3,
						"path":"translation"
					}
				},
				{
					"sampler":28,
					"target":{
						"node":3,
						"path":"rotation"
					}
				},
				{
					"sampler":29,
					"target":{
						"node":3,
						"path":"scale"
					}
				},
				{
					"sampler":30,
					"target":{
						"node":4,
						"path":"translation"
					}
				},
				{
					"sampler":31,
					"target":{
						"node":4,
						"path":"rotation"
					}
				},
				{
					"sampler":32,
					"target":{
						"node":4,
						"path":"scale"
					}
				},
				{
					"sampler":33,
					"target":{
						"node":13,
						"path":"translation"
					}
				},
				{
					"sampler":34,
					"target":{
						"node":13,
						"path":"rotation"
					}
				},
				{
					"sampler":35,
					"target":{
						"node":13,
						"path":"scale"
					}
				},
				{
					"sampler":36,
					"target":{
						"node":12,
						"path":"translation"
					}
				},
				{
					"sampler":37,
					"target":{
						"node":12,
						"path":"rotation"
					}
				},
				{
					"sampler":38,
					"target":{
						"node":12,
						"path":"scale"
					}
				},
				{
					"sampler":39,
					"target":{
						"node":8,
						"path":"translation"
					}
				},
				{
					"sampler":40,
					"target":{
						"node":8,
						"path":"rotation"
					}
				},
				{
					"sampler":41,
					"target":{
						"node":8,
						"path":"scale"
					}
				},
				{
					"sampler":42,
					"target":{
						"node":11,
						"path":"translation"
					}
				},
				{
					"sampler":43,
					"target":{
						"node":11,
						"path":"rotation"
					}
				},
				{
					"sampler":44,
					"target":{
						"node":11,
						"path":"scale"
					}
				},
				{
					"sampler":45,
					"target":{
						"node":9,
						"path":"translation"
					}
				},
				{
					"sampler":46,
					"target":{
						"node":9,
						"path":"rotation"
					}
				},
				{
					"sampler":47,
					"target":{
						"node":9,
						"path":"scale"
					}
				},
				{
					"sampler":48,
					"target":{
						"node":10,
						"path":"translation"
					}
				},
				{
					"sampler":49,
					"target":{
						"node":10,
						"path":"rotation"
					}
				},
				{
					"sampler":50,
					"target":{
						"node":10,
						"path":"scale"
					}
				},
				{
					"sampler":51,
					"target":{
						"node":21,
						"path":"translation"
					}
				},
				{
					"sampler":52,
					"target":{
						"node":21,
						"path":"rotation"
					}
				},
				{
					"sampler":53,
					"target":{
						"node":21,
						"path":"scale"
					}
				},
				{
					"sampler":54,
					"target":{
						"node":16,
						"path":"translation"
					}
				},
				{
					"sampler":55,
					"target":{
						"node":16,
						"path":"rotation"
					}
				},
				{
					"sampler":56,
					"target":{
						"node":16,
						"path":"scale"
					}
				},
				{
					"sampler":57,
					"target":{
						"node":20,
						"path":"translation"
					}
				},
				{
					"sampler":58,
					"target":{
						"node":20,
						"path":"rotation"
					}
				},
				{
					"sampler":59,
					"target":{
						"node":20,
						"path":"scale"
					}
				},
				{
					"sampler":60,
					"target":{
						"node":18,
						"path":"translation"
					}
				},
				{
					"sampler":61,
					"target":{
						"node":18,
						"path":"rotation"
					}
				},
				{
					"sampler":62,
					"target":{
						"node":18,
						"path":"scale"
					}
				},
				{
					"sampler":63,
					"target":{
						"node":17,
						"path":"translation"
					}
				},
				{
					"sampler":64,
					"target":{
						"node":17,
						"path":"rotation"
					}
				},
				{
					"sampler":65,
					"target":{
						"node":17,
						"path":"scale"
					}
				},
				{
					"sampler":66,
					"target":{
						"node":19,
						"path":"translation"
					}
				},
				{
					"sampler":67,
					"target":{
						"node":19,
						"path":"rotation"
					}
				},
				{
					"sampler":68,
					"target":{
						"node":19,
						"path":"scale"
					}
				},
				{
					"sampler":69,
					"target":{
						"node":27,
						"path":"translation"
					}
				},
				{
					"sampler":70,
					"target":{
						"node":27,
						"path":"rotation"
					}
				},
				{
					"sampler":71,
					"target":{
						"node":27,
						"path":"scale"
					}
				},
				{
					"sampler":72,
					"target":{
						"node":22,
						"path":"translation"
					}
				},
				{
					"sampler":73,
					"target":{
						"node":22,
						"path":"rotation"
					}
				},
				{
					"sampler":74,
					"target":{
						"node":22,
						"path":"scale"
					}
				},
				{
					"sampler":75,
					"target":{
						"node":26,
						"path":"translation"
					}
				},
				{
					"sampler":76,
					"target":{
						"node":26,
						"path":"rotation"
					}
				},
				{
					"sampler":77,
					"target":{
						"node":26,
						"path":"scale"
					}
				},
				{
					"sampler":78,
					"target":{
						"node":24,
						"path":"translation"
					}
				},
				{
					"sampler":79,
					"target":{
						"node":24,
						"path":"rotation"
					}
				},
				{
					"sampler":80,
					"target":{
						"node":24,
						"path":"scale"
					}
				},
				{
					"sampler":81,
					"target":{
						"node":23,
						"path":"translation"
					}
				},
				{
					"sampler":82,
					"target":{
						"node":23,
						"path":"rotation"
					}
				},
				{
					"sampler":83,
					"target":{
						"node":23,
						"path":"scale"
					}
				},
				{
					"sampler":84,
					"target":{
						"node":25,
						"path":"translation"
					}
				},
				{
					"sampler":85,
					"target":{
						"node":25,
						"path":"rotation"
					}
				},
				{
					"sampler":86,
					"target":{
						"node":25,
						"path":"scale"
					}
				},
				{
					"sampler":87,
					"target":{
						"node":32,
						"path":"translation"
					}
				},
				{
					"sampler":88,
					"target":{
						"node":32,
						"path":"rotation"
					}
				},
				{
					"sampler":89,
					"target":{
						"node":32,
						"path":"scale"
					}
				}
			],
			"extras":{
				"arp_baked_action":1,
				"arp_export":true
			},
			"name":"whypausegame",
			"samplers":[
				{
					"input":110,
					"interpolation":"LINEAR",
					"output":111
				},
				{
					"input":110,
					"interpolation":"LINEAR",
					"output":112
				},
				{
					"input":110,
					"interpolation":"LINEAR",
					"output":113
				},
				{
					"input":110,
					"interpolation":"LINEAR",
					"output":114
				},
				{
					"input":110,
					"interpolation":"LINEAR",
					"output":115
				},
				{
					"input":110,
					"interpolation":"LINEAR",
					"output":116
				},
				{
					"input":110,
					"interpolation":"LINEAR",
					"output":117
				},
				{
					"input":110,
					"interpolation":"LINEAR",
					"output":118
				},
				{
					"input":110,
					"interpolation":"LINEAR",
					"output":119
				},
				{
					"input":110,
					"interpolation":"LINEAR",
					"output":120
				},
				{
					"input":110,
					"interpolation":"LINEAR",
					"output":121
				},
				{
					"input":110,
					"interpolation":"LINEAR",
					"output":122
				},
				{
					"input":110,
					"interpolation":"LINEAR",
					"output":123
				},
				{
					"input":110,
					"interpolation":"LINEAR",
					"output":124
				},
				{
					"input":110,
					"interpolation":"LINEAR",
					"output":125
				},
				{
					"input":110,
					"interpolation":"LINEAR",
					"output":126
				},
				{
					"input":110,
					"interpolation":"LINEAR",
					"output":127
				},
				{
					"input":110,
					"interpolation":"LINEAR",
					"output":128
				},
				{
					"input":110,
					"interpolation":"LINEAR",
					"output":129
				},
				{
					"input":110,
					"interpolation":"LINEAR",
					"output":130
				},
				{
					"input":110,
					"interpolation":"LINEAR",
					"output":131
				},
				{
					"input":110,
					"interpolation":"LINEAR",
					"output":132
				},
				{
					"input":110,
					"interpolation":"LINEAR",
					"output":133
				},
				{
					"input":110,
					"interpolation":"LINEAR",
					"output":134
				},
				{
					"input":110,
					"interpolation":"LINEAR",
					"output":135
				},
				{
					"input":110,
					"interpolation":"LINEAR",
					"output":136
				},
				{
					"input":110,
					"interpolation":"LINEAR",
					"output":137
				},
				{
					"input":110,
					"interpolation":"LINEAR",
					"output":138
				},
				{
					"input":110,
					"interpolation":"LINEAR",
					"output":139
				},
				{
					"input":110,
					"interpolation":"LINEAR",
					"output":140
				},
				{
					"input":110,
					"interpolation":"LINEAR",
					"output":141
				},
				{
					"input":110,
					"interpolation":"LINEAR",
					"output":142
				},
				{
					"input":110,
					"interpolation":"LINEAR",
					"output":143
				},
				{
					"input":110,
					"interpolation":"LINEAR",
					"output":144
				},
				{
					"input":110,
					"interpolation":"LINEAR",
					"output":145
				},
				{
					"input":110,
					"interpolation":"LINEAR",
					"output":146
				},
				{
					"input":110,
					"interpolation":"LINEAR",
					"output":147
				},
				{
					"input":110,
					"interpolation":"LINEAR",
					"output":148
				},
				{
					"input":110,
					"interpolation":"LINEAR",
					"output":149
				},
				{
					"input":110,
					"interpolation":"LINEAR",
					"output":150
				},
				{
					"input":110,
					"interpolation":"LINEAR",
					"output":151
				},
				{
					"input":110,
					"interpolation":"LINEAR",
					"output":152
				},
				{
					"input":110,
					"interpolation":"LINEAR",
					"output":153
				},
				{
					"input":110,
					"interpolation":"LINEAR",
					"output":154
				},
				{
					"input":110,
					"interpolation":"LINEAR",
					"output":155
				},
				{
					"input":110,
					"interpolation":"LINEAR",
					"output":156
				},
				{
					"input":110,
					"interpolation":"LINEAR",
					"output":157
				},
				{
					"input":110,
					"interpolation":"LINEAR",
					"output":158
				},
				{
					"input":110,
					"interpolation":"LINEAR",
					"output":159
				},
				{
					"input":110,
					"interpolation":"LINEAR",
					"output":160
				},
				{
					"input":110,
					"interpolation":"LINEAR",
					"output":161
				},
				{
					"input":110,
					"interpolation":"LINEAR",
					"output":162
				},
				{
					"input":110,
					"interpolation":"LINEAR",
					"output":163
				},
				{
					"input":110,
					"interpolation":"LINEAR",
					"output":164
				},
				{
					"input":110,
					"interpolation":"LINEAR",
					"output":165
				},
				{
					"input":110,
					"interpolation":"LINEAR",
					"output":166
				},
				{
					"input":110,
					"interpolation":"LINEAR",
					"output":167
				},
				{
					"input":110,
					"interpolation":"LINEAR",
					"output":168
				},
				{
					"input":110,
					"interpolation":"LINEAR",
					"output":169
				},
				{
					"input":110,
					"interpolation":"LINEAR",
					"output":170
				},
				{
					"input":110,
					"interpolation":"LINEAR",
					"output":171
				},
				{
					"input":110,
					"interpolation":"LINEAR",
					"output":172
				},
				{
					"input":110,
					"interpolation":"LINEAR",
					"output":173
				},
				{
					"input":110,
					"interpolation":"LINEAR",
					"output":174
				},
				{
					"input":110,
					"interpolation":"LINEAR",
					"output":175
				},
				{
					"input":110,
					"interpolation":"LINEAR",
					"output":176
				},
				{
					"input":110,
					"interpolation":"LINEAR",
					"output":177
				},
				{
					"input":110,
					"interpolation":"LINEAR",
					"output":178
				},
				{
					"input":110,
					"interpolation":"LINEAR",
					"output":179
				},
				{
					"input":110,
					"interpolation":"LINEAR",
					"output":180
				},
				{
					"input":110,
					"interpolation":"LINEAR",
					"output":181
				},
				{
					"input":110,
					"interpolation":"LINEAR",
					"output":182
				},
				{
					"input":110,
					"interpolation":"LINEAR",
					"output":183
				},
				{
					"input":110,
					"interpolation":"LINEAR",
					"output":184
				},
				{
					"input":110,
					"interpolation":"LINEAR",
					"output":185
				},
				{
					"input":110,
					"interpolation":"LINEAR",
					"output":186
				},
				{
					"input":110,
					"interpolation":"LINEAR",
					"output":187
				},
				{
					"input":110,
					"interpolation":"LINEAR",
					"output":188
				},
				{
					"input":110,
					"interpolation":"LINEAR",
					"output":189
				},
				{
					"input":110,
					"interpolation":"LINEAR",
					"output":190
				},
				{
					"input":110,
					"interpolation":"LINEAR",
					"output":191
				},
				{
					"input":110,
					"interpolation":"LINEAR",
					"output":192
				},
				{
					"input":110,
					"interpolation":"LINEAR",
					"output":193
				},
				{
					"input":110,
					"interpolation":"LINEAR",
					"output":194
				},
				{
					"input":110,
					"interpolation":"LINEAR",
					"output":195
				},
				{
					"input":110,
					"interpolation":"LINEAR",
					"output":196
				},
				{
					"input":110,
					"interpolation":"LINEAR",
					"output":197
				},
				{
					"input":110,
					"interpolation":"LINEAR",
					"output":198
				},
				{
					"input":110,
					"interpolation":"LINEAR",
					"output":199
				},
				{
					"input":110,
					"interpolation":"LINEAR",
					"output":200
				}
			]
		}
	],
	"materials":[
		{
			"doubleSided":true,
			"name":"Material.001",
			"pbrMetallicRoughness":{
				"baseColorTexture":{
					"index":0
				},
				"metallicFactor":0,
				"roughnessFactor":0.5
			}
		},
		{
			"doubleSided":true,
			"name":"dumbHorse",
			"normalTexture":{
				"index":1,
				"scale":2.0999999046325684
			},
			"pbrMetallicRoughness":{
				"baseColorTexture":{
					"index":2
				},
				"metallicFactor":0,
				"roughnessFactor":0.5
			}
		}
	],
	"meshes":[
		{
			"name":"Sphere",
			"primitives":[
				{
					"attributes":{
						"POSITION":0,
						"NORMAL":1,
						"TEXCOORD_0":2,
						"JOINTS_0":3,
						"WEIGHTS_0":4
					},
					"indices":5,
					"material":0
				}
			]
		},
		{
			"name":"Sphere.001",
			"primitives":[
				{
					"attributes":{
						"POSITION":7,
						"NORMAL":8,
						"TEXCOORD_0":9,
						"JOINTS_0":10,
						"WEIGHTS_0":11
					},
					"indices":12,
					"material":0
				}
			]
		},
		{
			"name":"mesh.002",
			"primitives":[
				{
					"attributes":{
						"POSITION":13,
						"NORMAL":14,
						"TEXCOORD_0":15,
						"JOINTS_0":16,
						"WEIGHTS_0":17
					},
					"indices":18,
					"material":1
				}
			]
		}
	],
	"textures":[
		{
			"sampler":0,
			"source":0
		},
		{
			"sampler":0,
			"source":1
		},
		{
			"sampler":0,
			"source":2
		}
	],
	"images":[
		{
			"mimeType":"image/png",
			"name":"Eye Base Color",
			"uri":"Eye%20Base%20Color.png"
		},
		{
			"mimeType":"image/png",
			"name":"NormalMap01",
			"uri":"NormalMap01.png"
		},
		{
			"mimeType":"image/png",
			"name":"dumbHorse Base Color",
			"uri":"dumbHorse%20Base%20Color.png"
		}
	],
	"skins":[
		{
			"inverseBindMatrices":6,
			"joints":[
				28,
				15,
				14,
				1,
				0,
				7,
				6,
				2,
				5,
				3,
				4,
				13,
				12,
				8,
				11,
				9,
				10,
				21,
				16,
				20,
				18,
				17,
				19,
				27,
				22,
				26,
				24,
				23,
				25
			],
			"name":"root"
		}
	],
	"accessors":[
		{
			"bufferView":0,
			"componentType":5126,
			"count":596,
			"max":[
				-0.10484849661588669,
				4.347155570983887,
				0.5343403220176697
			],
			"min":[
				-0.30014315247535706,
				4.151660919189453,
				0.33932003378868103
			],
			"type":"VEC3"
		},
		{
			"bufferView":1,
			"componentType":5126,
			"count":596,
			"type":"VEC3"
		},
		{
			"bufferView":2,
			"componentType":5126,
			"count":596,
			"type":"VEC2"
		},
		{
			"bufferView":3,
			"componentType":5121,
			"count":596,
			"type":"VEC4"
		},
		{
			"bufferView":4,
			"componentType":5126,
			"count":596,
			"type":"VEC4"
		},
		{
			"bufferView":5,
			"componentType":5123,
			"count":2880,
			"type":"SCALAR"
		},
		{
			"bufferView":6,
			"componentType":5126,
			"count":29,
			"type":"MAT4"
		},
		{
			"bufferView":7,
			"componentType":5126,
			"count":596,
			"max":[
				0.28651100397109985,
				4.3634538650512695,
				0.5333710312843323
			],
			"min":[
				0.09691452980041504,
				4.173356056213379,
				0.34460702538490295
			],
			"type":"VEC3"
		},
		{
			"bufferView":8,
			"componentType":5126,
			"count":596,
			"type":"VEC3"
		},
		{
			"bufferView":9,
			"componentType":5126,
			"count":596,
			"type":"VEC2"
		},
		{
			"bufferView":10,
			"componentType":5121,
			"count":596,
			"type":"VEC4"
		},
		{
			"bufferView":11,
			"componentType":5126,
			"count":596,
			"type":"VEC4"
		},
		{
			"bufferView":12,
			"componentType":5123,
			"count":2880,
			"type":"SCALAR"
		},
		{
			"bufferView":13,
			"componentType":5126,
			"count":47674,
			"max":[
				1.1402658224105835,
				4.619969844818115,
				1.0326118469238281
			],
			"min":[
				-1.1373741626739502,
				0.04090643674135208,
				-0.6621803641319275
			],
			"type":"VEC3"
		},
		{
			"bufferView":14,
			"componentType":5126,
			"count":47674,
			"type":"VEC3"
		},
		{
			"bufferView":15,
			"componentType":5126,
			"count":47674,
			"type":"VEC2"
		},
		{
			"bufferView":16,
			"componentType":5121,
			"count":47674,
			"type":"VEC4"
		},
		{
			"bufferView":17,
			"componentType":5126,
			"count":47674,
			"type":"VEC4"
		},
		{
			"bufferView":18,
			"componentType":5123,
			"count":262248,
			"type":"SCALAR"
		},
		{
			"bufferView":19,
			"componentType":5126,
			"count":30,
			"max":[
				1.25
			],
			"min":[
				0.041666666666666664
			],
			"type":"SCALAR"
		},
		{
			"bufferView":20,
			"componentType":5126,
			"count":30,
			"type":"VEC3"
		},
		{
			"bufferView":21,
			"componentType":5126,
			"count":30,
			"type":"VEC4"
		},
		{
			"bufferView":22,
			"componentType":5126,
			"count":30,
			"type":"VEC3"
		},
		{
			"bufferView":23,
			"componentType":5126,
			"count":30,
			"type":"VEC3"
		},
		{
			"bufferView":24,
			"componentType":5126,
			"count":30,
			"type":"VEC4"
		},
		{
			"bufferView":25,
			"componentType":5126,
			"count":30,
			"type":"VEC3"
		},
		{
			"bufferView":26,
			"componentType":5126,
			"count":30,
			"type":"VEC3"
		},
		{
			"bufferView":27,
			"componentType":5126,
			"count":30,
			"type":"VEC4"
		},
		{
			"bufferView":28,
			"componentType":5126,
			"count":30,
			"type":"VEC3"
		},
		{
			"bufferView":29,
			"componentType":5126,
			"count":30,
			"type":"VEC3"
		},
		{
			"bufferView":30,
			"componentType":5126,
			"count":30,
			"type":"VEC4"
		},
		{
			"bufferView":31,
			"componentType":5126,
			"count":30,
			"type":"VEC3"
		},
		{
			"bufferView":32,
			"componentType":5126,
			"count":30,
			"type":"VEC3"
		},
		{
			"bufferView":33,
			"componentType":5126,
			"count":30,
			"type":"VEC4"
		},
		{
			"bufferView":34,
			"componentType":5126,
			"count":30,
			"type":"VEC3"
		},
		{
			"bufferView":35,
			"componentType":5126,
			"count":30,
			"type":"VEC3"
		},
		{
			"bufferView":36,
			"componentType":5126,
			"count":30,
			"type":"VEC4"
		},
		{
			"bufferView":37,
			"componentType":5126,
			"count":30,
			"type":"VEC3"
		},
		{
			"bufferView":38,
			"componentType":5126,
			"count":30,
			"type":"VEC3"
		},
		{
			"bufferView":39,
			"componentType":5126,
			"count":30,
			"type":"VEC4"
		},
		{
			"bufferView":40,
			"componentType":5126,
			"count":30,
			"type":"VEC3"
		},
		{
			"bufferView":41,
			"componentType":5126,
			"count":30,
			"type":"VEC3"
		},
		{
			"bufferView":42,
			"componentType":5126,
			"count":30,
			"type":"VEC4"
		},
		{
			"bufferView":43,
			"componentType":5126,
			"count":30,
			"type":"VEC3"
		},
		{
			"bufferView":44,
			"componentType":5126,
			"count":30,
			"type":"VEC3"
		},
		{
			"bufferView":45,
			"componentType":5126,
			"count":30,
			"type":"VEC4"
		},
		{
			"bufferView":46,
			"componentType":5126,
			"count":30,
			"type":"VEC3"
		},
		{
			"bufferView":47,
			"componentType":5126,
			"count":30,
			"type":"VEC3"
		},
		{
			"bufferView":48,
			"componentType":5126,
			"count":30,
			"type":"VEC4"
		},
		{
			"bufferView":49,
			"componentType":5126,
			"count":30,
			"type":"VEC3"
		},
		{
			"bufferView":50,
			"componentType":5126,
			"count":30,
			"type":"VEC3"
		},
		{
			"bufferView":51,
			"componentType":5126,
			"count":30,
			"type":"VEC4"
		},
		{
			"bufferView":52,
			"componentType":5126,
			"count":30,
			"type":"VEC3"
		},
		{
			"bufferView":53,
			"componentType":5126,
			"count":30,
			"type":"VEC3"
		},
		{
			"bufferView":54,
			"componentType":5126,
			"count":30,
			"type":"VEC4"
		},
		{
			"bufferView":55,
			"componentType":5126,
			"count":30,
			"type":"VEC3"
		},
		{
			"bufferView":56,
			"componentType":5126,
			"count":30,
			"type":"VEC3"
		},
		{
			"bufferView":57,
			"componentType":5126,
			"count":30,
			"type":"VEC4"
		},
		{
			"bufferView":58,
			"componentType":5126,
			"count":30,
			"type":"VEC3"
		},
		{
			"bufferView":59,
			"componentType":5126,
			"count":30,
			"type":"VEC3"
		},
		{
			"bufferView":60,
			"componentType":5126,
			"count":30,
			"type":"VEC4"
		},
		{
			"bufferView":61,
			"componentType":5126,
			"count":30,
			"type":"VEC3"
		},
		{
			"bufferView":62,
			"componentType":5126,
			"count":30,
			"type":"VEC3"
		},
		{
			"bufferView":63,
			"componentType":5126,
			"count":30,
			"type":"VEC4"
		},
		{
			"bufferView":64,
			"componentType":5126,
			"count":30,
			"type":"VEC3"
		},
		{
			"bufferView":65,
			"componentType":5126,
			"count":30,
			"type":"VEC3"
		},
		{
			"bufferView":66,
			"componentType":5126,
			"count":30,
			"type":"VEC4"
		},
		{
			"bufferView":67,
			"componentType":5126,
			"count":30,
			"type":"VEC3"
		},
		{
			"bufferView":68,
			"componentType":5126,
			"count":30,
			"type":"VEC3"
		},
		{
			"bufferView":69,
			"componentType":5126,
			"count":30,
			"type":"VEC4"
		},
		{
			"bufferView":70,
			"componentType":5126,
			"count":30,
			"type":"VEC3"
		},
		{
			"bufferView":71,
			"componentType":5126,
			"count":30,
			"type":"VEC3"
		},
		{
			"bufferView":72,
			"componentType":5126,
			"count":30,
			"type":"VEC4"
		},
		{
			"bufferView":73,
			"componentType":5126,
			"count":30,
			"type":"VEC3"
		},
		{
			"bufferView":74,
			"componentType":5126,
			"count":30,
			"type":"VEC3"
		},
		{
			"bufferView":75,
			"componentType":5126,
			"count":30,
			"type":"VEC4"
		},
		{
			"bufferView":76,
			"componentType":5126,
			"count":30,
			"type":"VEC3"
		},
		{
			"bufferView":77,
			"componentType":5126,
			"count":30,
			"type":"VEC3"
		},
		{
			"bufferView":78,
			"componentType":5126,
			"count":30,
			"type":"VEC4"
		},
		{
			"bufferView":79,
			"componentType":5126,
			"count":30,
			"type":"VEC3"
		},
		{
			"bufferView":80,
			"componentType":5126,
			"count":30,
			"type":"VEC3"
		},
		{
			"bufferView":81,
			"componentType":5126,
			"count":30,
			"type":"VEC4"
		},
		{
			"bufferView":82,
			"componentType":5126,
			"count":30,
			"type":"VEC3"
		},
		{
			"bufferView":83,
			"componentType":5126,
			"count":30,
			"type":"VEC3"
		},
		{
			"bufferView":84,
			"componentType":5126,
			"count":30,
			"type":"VEC4"
		},
		{
			"bufferView":85,
			"componentType":5126,
			"count":30,
			"type":"VEC3"
		},
		{
			"bufferView":86,
			"componentType":5126,
			"count":30,
			"type":"VEC3"
		},
		{
			"bufferView":87,
			"componentType":5126,
			"count":30,
			"type":"VEC4"
		},
		{
			"bufferView":88,
			"componentType":5126,
			"count":30,
			"type":"VEC3"
		},
		{
			"bufferView":89,
			"componentType":5126,
			"count":30,
			"type":"VEC3"
		},
		{
			"bufferView":90,
			"componentType":5126,
			"count":30,
			"type":"VEC4"
		},
		{
			"bufferView":91,
			"componentType":5126,
			"count":30,
			"type":"VEC3"
		},
		{
			"bufferView":92,
			"componentType":5126,
			"count":30,
			"type":"VEC3"
		},
		{
			"bufferView":93,
			"componentType":5126,
			"count":30,
			"type":"VEC4"
		},
		{
			"bufferView":94,
			"componentType":5126,
			"count":30,
			"type":"VEC3"
		},
		{
			"bufferView":95,
			"componentType":5126,
			"count":30,
			"type":"VEC3"
		},
		{
			"bufferView":96,
			"componentType":5126,
			"count":30,
			"type":"VEC4"
		},
		{
			"bufferView":97,
			"componentType":5126,
			"count":30,
			"type":"VEC3"
		},
		{
			"bufferView":98,
			"componentType":5126,
			"count":30,
			"type":"VEC3"
		},
		{
			"bufferView":99,
			"componentType":5126,
			"count":30,
			"type":"VEC4"
		},
		{
			"bufferView":100,
			"componentType":5126,
			"count":30,
			"type":"VEC3"
		},
		{
			"bufferView":101,
			"componentType":5126,
			"count":30,
			"type":"VEC3"
		},
		{
			"bufferView":102,
			"componentType":5126,
			"count":30,
			"type":"VEC4"
		},
		{
			"bufferView":103,
			"componentType":5126,
			"count":30,
			"type":"VEC3"
		},
		{
			"bufferView":104,
			"componentType":5126,
			"count":30,
			"type":"VEC3"
		},
		{
			"bufferView":105,
			"componentType":5126,
			"count":30,
			"type":"VEC4"
		},
		{
			"bufferView":106,
			"componentType":5126,
			"count":30,
			"type":"VEC3"
		},
		{
			"bufferView":107,
			"componentType":5126,
			"count":30,
			"type":"VEC3"
		},
		{
			"bufferView":108,
			"componentType":5126,
			"count":30,
			"type":"VEC4"
		},
		{
			"bufferView":109,
			"componentType":5126,
			"count":30,
			"type":"VEC3"
		},
		{
			"bufferView":110,
			"componentType":5126,
			"count":60,
			"max":[
				2.5
			],
			"min":[
				0.041666666666666664
			],
			"type":"SCALAR"
		},
		{
			"bufferView":111,
			"componentType":5126,
			"count":60,
			"type":"VEC3"
		},
		{
			"bufferView":112,
			"componentType":5126,
			"count":60,
			"type":"VEC4"
		},
		{
			"bufferView":113,
			"componentType":5126,
			"count":60,
			"type":"VEC3"
		},
		{
			"bufferView":114,
			"componentType":5126,
			"count":60,
			"type":"VEC3"
		},
		{
			"bufferView":115,
			"componentType":5126,
			"count":60,
			"type":"VEC4"
		},
		{
			"bufferView":116,
			"componentType":5126,
			"count":60,
			"type":"VEC3"
		},
		{
			"bufferView":117,
			"componentType":5126,
			"count":60,
			"type":"VEC3"
		},
		{
			"bufferView":118,
			"componentType":5126,
			"count":60,
			"type":"VEC4"
		},
		{
			"bufferView":119,
			"componentType":5126,
			"count":60,
			"type":"VEC3"
		},
		{
			"bufferView":120,
			"componentType":5126,
			"count":60,
			"type":"VEC3"
		},
		{
			"bufferView":121,
			"componentType":5126,
			"count":60,
			"type":"VEC4"
		},
		{
			"bufferView":122,
			"componentType":5126,
			"count":60,
			"type":"VEC3"
		},
		{
			"bufferView":123,
			"componentType":5126,
			"count":60,
			"type":"VEC3"
		},
		{
			"bufferView":124,
			"componentType":5126,
			"count":60,
			"type":"VEC4"
		},
		{
			"bufferView":125,
			"componentType":5126,
			"count":60,
			"type":"VEC3"
		},
		{
			"bufferView":126,
			"componentType":5126,
			"count":60,
			"type":"VEC3"
		},
		{
			"bufferView":127,
			"componentType":5126,
			"count":60,
			"type":"VEC4"
		},
		{
			"bufferView":128,
			"componentType":5126,
			"count":60,
			"type":"VEC3"
		},
		{
			"bufferView":129,
			"componentType":5126,
			"count":60,
			"type":"VEC3"
		},
		{
			"bufferView":130,
			"componentType":5126,
			"count":60,
			"type":"VEC4"
		},
		{
			"bufferView":131,
			"componentType":5126,
			"count":60,
			"type":"VEC3"
		},
		{
			"bufferView":132,
			"componentType":5126,
			"count":60,
			"type":"VEC3"
		},
		{
			"bufferView":133,
			"componentType":5126,
			"count":60,
			"type":"VEC4"
		},
		{
			"bufferView":134,
			"componentType":5126,
			"count":60,
			"type":"VEC3"
		},
		{
			"bufferView":135,
			"componentType":5126,
			"count":60,
			"type":"VEC3"
		},
		{
			"bufferView":136,
			"componentType":5126,
			"count":60,
			"type":"VEC4"
		},
		{
			"bufferView":137,
			"componentType":5126,
			"count":60,
			"type":"VEC3"
		},
		{
			"bufferView":138,
			"componentType":5126,
			"count":60,
			"type":"VEC3"
		},
		{
			"bufferView":139,
			"componentType":5126,
			"count":60,
			"type":"VEC4"
		},
		{
			"bufferView":140,
			"componentType":5126,
			"count":60,
			"type":"VEC3"
		},
		{
			"bufferView":141,
			"componentType":5126,
			"count":60,
			"type":"VEC3"
		},
		{
			"bufferView":142,
			"componentType":5126,
			"count":60,
			"type":"VEC4"
		},
		{
			"bufferView":143,
			"componentType":5126,
			"count":60,
			"type":"VEC3"
		},
		{
			"bufferView":144,
			"componentType":5126,
			"count":60,
			"type":"VEC3"
		},
		{
			"bufferView":145,
			"componentType":5126,
			"count":60,
			"type":"VEC4"
		},
		{
			"bufferView":146,
			"componentType":5126,
			"count":60,
			"type":"VEC3"
		},
		{
			"bufferView":147,
			"componentType":5126,
			"count":60,
			"type":"VEC3"
		},
		{
			"bufferView":148,
			"componentType":5126,
			"count":60,
			"type":"VEC4"
		},
		{
			"bufferView":149,
			"componentType":5126,
			"count":60,
			"type":"VEC3"
		},
		{
			"bufferView":150,
			"componentType":5126,
			"count":60,
			"type":"VEC3"
		},
		{
			"bufferView":151,
			"componentType":5126,
			"count":60,
			"type":"VEC4"
		},
		{
			"bufferView":152,
			"componentType":5126,
			"count":60,
			"type":"VEC3"
		},
		{
			"bufferView":153,
			"componentType":5126,
			"count":60,
			"type":"VEC3"
		},
		{
			"bufferView":154,
			"componentType":5126,
			"count":60,
			"type":"VEC4"
		},
		{
			"bufferView":155,
			"componentType":5126,
			"count":60,
			"type":"VEC3"
		},
		{
			"bufferView":156,
			"componentType":5126,
			"count":60,
			"type":"VEC3"
		},
		{
			"bufferView":157,
			"componentType":5126,
			"count":60,
			"type":"VEC4"
		},
		{
			"bufferView":158,
			"componentType":5126,
			"count":60,
			"type":"VEC3"
		},
		{
			"bufferView":159,
			"componentType":5126,
			"count":60,
			"type":"VEC3"
		},
		{
			"bufferView":160,
			"componentType":5126,
			"count":60,
			"type":"VEC4"
		},
		{
			"bufferView":161,
			"componentType":5126,
			"count":60,
			"type":"VEC3"
		},
		{
			"bufferView":162,
			"componentType":5126,
			"count":60,
			"type":"VEC3"
		},
		{
			"bufferView":163,
			"componentType":5126,
			"count":60,
			"type":"VEC4"
		},
		{
			"bufferView":164,
			"componentType":5126,
			"count":60,
			"type":"VEC3"
		},
		{
			"bufferView":165,
			"componentType":5126,
			"count":60,
			"type":"VEC3"
		},
		{
			"bufferView":166,
			"componentType":5126,
			"count":60,
			"type":"VEC4"
		},
		{
			"bufferView":167,
			"componentType":5126,
			"count":60,
			"type":"VEC3"
		},
		{
			"bufferView":168,
			"componentType":5126,
			"count":60,
			"type":"VEC3"
		},
		{
			"bufferView":169,
			"componentType":5126,
			"count":60,
			"type":"VEC4"
		},
		{
			"bufferView":170,
			"componentType":5126,
			"count":60,
			"type":"VEC3"
		},
		{
			"bufferView":171,
			"componentType":5126,
			"count":60,
			"type":"VEC3"
		},
		{
			"bufferView":172,
			"componentType":5126,
			"count":60,
			"type":"VEC4"
		},
		{
			"bufferView":173,
			"componentType":5126,
			"count":60,
			"type":"VEC3"
		},
		{
			"bufferView":174,
			"componentType":5126,
			"count":60,
			"type":"VEC3"
		},
		{
			"bufferView":175,
			"componentType":5126,
			"count":60,
			"type":"VEC4"
		},
		{
			"bufferView":176,
			"componentType":5126,
			"count":60,
			"type":"VEC3"
		},
		{
			"bufferView":177,
			"componentType":5126,
			"count":60,
			"type":"VEC3"
		},
		{
			"bufferView":178,
			"componentType":5126,
			"count":60,
			"type":"VEC4"
		},
		{
			"bufferView":179,
			"componentType":5126,
			"count":60,
			"type":"VEC3"
		},
		{
			"bufferView":180,
			"componentType":5126,
			"count":60,
			"type":"VEC3"
		},
		{
			"bufferView":181,
			"componentType":5126,
			"count":60,
			"type":"VEC4"
		},
		{
			"bufferView":182,
			"componentType":5126,
			"count":60,
			"type":"VEC3"
		},
		{
			"bufferView":183,
			"componentType":5126,
			"count":60,
			"type":"VEC3"
		},
		{
			"bufferView":184,
			"componentType":5126,
			"count":60,
			"type":"VEC4"
		},
		{
			"bufferView":185,
			"componentType":5126,
			"count":60,
			"type":"VEC3"
		},
		{
			"bufferView":186,
			"componentType":5126,
			"count":60,
			"type":"VEC3"
		},
		{
			"bufferView":187,
			"componentType":5126,
			"count":60,
			"type":"VEC4"
		},
		{
			"bufferView":188,
			"componentType":5126,
			"count":60,
			"type":"VEC3"
		},
		{
			"bufferView":189,
			"componentType":5126,
			"count":60,
			"type":"VEC3"
		},
		{
			"bufferView":190,
			"componentType":5126,
			"count":60,
			"type":"VEC4"
		},
		{
			"bufferView":191,
			"componentType":5126,
			"count":60,
			"type":"VEC3"
		},
		{
			"bufferView":192,
			"componentType":5126,
			"count":60,
			"type":"VEC3"
		},
		{
			"bufferView":193,
			"componentType":5126,
			"count":60,
			"type":"VEC4"
		},
		{
			"bufferView":194,
			"componentType":5126,
			"count":60,
			"type":"VEC3"
		},
		{
			"bufferView":195,
			"componentType":5126,
			"count":60,
			"type":"VEC3"
		},
		{
			"bufferView":196,
			"componentType":5126,
			"count":60,
			"type":"VEC4"
		},
		{
			"bufferView":197,
			"componentType":5126,
			"count":60,
			"type":"VEC3"
		},
		{
			"bufferView":198,
			"componentType":5126,
			"count":60,
			"type":"VEC3"
		},
		{
			"bufferView":199,
			"componentType":5126,
			"count":60,
			"type":"VEC4"
		},
		{
			"bufferView":200,
			"componentType":5126,
			"count":60,
			"type":"VEC3"
		}
	],
	"bufferViews":[
		{
			"buffer":0,
			"byteLength":7152,
			"byteOffset":0,
			"target":34962
		},
		{
			"buffer":0,
			"byteLength":7152,
			"byteOffset":7152,
			"target":34962
		},
		{
			"buffer":0,
			"byteLength":4768,
			"byteOffset":14304,
			"target":34962
		},
		{
			"buffer":0,
			"byteLength":2384,
			"byteOffset":19072,
			"target":34962
		},
		{
			"buffer":0,
			"byteLength":9536,
			"byteOffset":21456,
			"target":34962
		},
		{
			"buffer":0,
			"byteLength":5760,
			"byteOffset":30992,
			"target":34963
		},
		{
			"buffer":0,
			"byteLength":1856,
			"byteOffset":36752
		},
		{
			"buffer":0,
			"byteLength":7152,
			"byteOffset":38608,
			"target":34962
		},
		{
			"buffer":0,
			"byteLength":7152,
			"byteOffset":45760,
			"target":34962
		},
		{
			"buffer":0,
			"byteLength":4768,
			"byteOffset":52912,
			"target":34962
		},
		{
			"buffer":0,
			"byteLength":2384,
			"byteOffset":57680,
			"target":34962
		},
		{
			"buffer":0,
			"byteLength":9536,
			"byteOffset":60064,
			"target":34962
		},
		{
			"buffer":0,
			"byteLength":5760,
			"byteOffset":69600,
			"target":34963
		},
		{
			"buffer":0,
			"byteLength":572088,
			"byteOffset":75360,
			"target":34962
		},
		{
			"buffer":0,
			"byteLength":572088,
			"byteOffset":647448,
			"target":34962
		},
		{
			"buffer":0,
			"byteLength":381392,
			"byteOffset":1219536,
			"target":34962
		},
		{
			"buffer":0,
			"byteLength":190696,
			"byteOffset":1600928,
			"target":34962
		},
		{
			"buffer":0,
			"byteLength":762784,
			"byteOffset":1791624,
			"target":34962
		},
		{
			"buffer":0,
			"byteLength":524496,
			"byteOffset":2554408,
			"target":34963
		},
		{
			"buffer":0,
			"byteLength":120,
			"byteOffset":3078904
		},
		{
			"buffer":0,
			"byteLength":360,
			"byteOffset":3079024
		},
		{
			"buffer":0,
			"byteLength":480,
			"byteOffset":3079384
		},
		{
			"buffer":0,
			"byteLength":360,
			"byteOffset":3079864
		},
		{
			"buffer":0,
			"byteLength":360,
			"byteOffset":3080224
		},
		{
			"buffer":0,
			"byteLength":480,
			"byteOffset":3080584
		},
		{
			"buffer":0,
			"byteLength":360,
			"byteOffset":3081064
		},
		{
			"buffer":0,
			"byteLength":360,
			"byteOffset":3081424
		},
		{
			"buffer":0,
			"byteLength":480,
			"byteOffset":3081784
		},
		{
			"buffer":0,
			"byteLength":360,
			"byteOffset":3082264
		},
		{
			"buffer":0,
			"byteLength":360,
			"byteOffset":3082624
		},
		{
			"buffer":0,
			"byteLength":480,
			"byteOffset":3082984
		},
		{
			"buffer":0,
			"byteLength":360,
			"byteOffset":3083464
		},
		{
			"buffer":0,
			"byteLength":360,
			"byteOffset":3083824
		},
		{
			"buffer":0,
			"byteLength":480,
			"byteOffset":3084184
		},
		{
			"buffer":0,
			"byteLength":360,
			"byteOffset":3084664
		},
		{
			"buffer":0,
			"byteLength":360,
			"byteOffset":3085024
		},
		{
			"buffer":0,
			"byteLength":480,
			"byteOffset":3085384
		},
		{
			"buffer":0,
			"byteLength":360,
			"byteOffset":3085864
		},
		{
			"buffer":0,
			"byteLength":360,
			"byteOffset":3086224
		},
		{
			"buffer":0,
			"byteLength":480,
			"byteOffset":3086584
		},
		{
			"buffer":0,
			"byteLength":360,
			"byteOffset":3087064
		},
		{
			"buffer":0,
			"byteLength":360,
			"byteOffset":3087424
		},
		{
			"buffer":0,
			"byteLength":480,
			"byteOffset":3087784
		},
		{
			"buffer":0,
			"byteLength":360,
			"byteOffset":3088264
		},
		{
			"buffer":0,
			"byteLength":360,
			"byteOffset":3088624
		},
		{
			"buffer":0,
			"byteLength":480,
			"byteOffset":3088984
		},
		{
			"buffer":0,
			"byteLength":360,
			"byteOffset":3089464
		},
		{
			"buffer":0,
			"byteLength":360,
			"byteOffset":3089824
		},
		{
			"buffer":0,
			"byteLength":480,
			"byteOffset":3090184
		},
		{
			"buffer":0,
			"byteLength":360,
			"byteOffset":3090664
		},
		{
			"buffer":0,
			"byteLength":360,
			"byteOffset":3091024
		},
		{
			"buffer":0,
			"byteLength":480,
			"byteOffset":3091384
		},
		{
			"buffer":0,
			"byteLength":360,
			"byteOffset":3091864
		},
		{
			"buffer":0,
			"byteLength":360,
			"byteOffset":3092224
		},
		{
			"buffer":0,
			"byteLength":480,
			"byteOffset":3092584
		},
		{
			"buffer":0,
			"byteLength":360,
			"byteOffset":3093064
		},
		{
			"buffer":0,
			"byteLength":360,
			"byteOffset":3093424
		},
		{
			"buffer":0,
			"byteLength":480,
			"byteOffset":3093784
		},
		{
			"buffer":0,
			"byteLength":360,
			"byteOffset":3094264
		},
		{
			"buffer":0,
			"byteLength":360,
			"byteOffset":3094624
		},
		{
			"buffer":0,
			"byteLength":480,
			"byteOffset":3094984
		},
		{
			"buffer":0,
			"byteLength":360,
			"byteOffset":3095464
		},
		{
			"buffer":0,
			"byteLength":360,
			"byteOffset":3095824
		},
		{
			"buffer":0,
			"byteLength":480,
			"byteOffset":3096184
		},
		{
			"buffer":0,
			"byteLength":360,
			"byteOffset":3096664
		},
		{
			"buffer":0,
			"byteLength":360,
			"byteOffset":3097024
		},
		{
			"buffer":0,
			"byteLength":480,
			"byteOffset":3097384
		},
		{
			"buffer":0,
			"byteLength":360,
			"byteOffset":3097864
		},
		{
			"buffer":0,
			"byteLength":360,
			"byteOffset":3098224
		},
		{
			"buffer":0,
			"byteLength":480,
			"byteOffset":3098584
		},
		{
			"buffer":0,
			"byteLength":360,
			"byteOffset":3099064
		},
		{
			"buffer":0,
			"byteLength":360,
			"byteOffset":3099424
		},
		{
			"buffer":0,
			"byteLength":480,
			"byteOffset":3099784
		},
		{
			"buffer":0,
			"byteLength":360,
			"byteOffset":3100264
		},
		{
			"buffer":0,
			"byteLength":360,
			"byteOffset":3100624
		},
		{
			"buffer":0,
			"byteLength":480,
			"byteOffset":3100984
		},
		{
			"buffer":0,
			"byteLength":360,
			"byteOffset":3101464
		},
		{
			"buffer":0,
			"byteLength":360,
			"byteOffset":3101824
		},
		{
			"buffer":0,
			"byteLength":480,
			"byteOffset":3102184
		},
		{
			"buffer":0,
			"byteLength":360,
			"byteOffset":3102664
		},
		{
			"buffer":0,
			"byteLength":360,
			"byteOffset":3103024
		},
		{
			"buffer":0,
			"byteLength":480,
			"byteOffset":3103384
		},
		{
			"buffer":0,
			"byteLength":360,
			"byteOffset":3103864
		},
		{
			"buffer":0,
			"byteLength":360,
			"byteOffset":3104224
		},
		{
			"buffer":0,
			"byteLength":480,
			"byteOffset":3104584
		},
		{
			"buffer":0,
			"byteLength":360,
			"byteOffset":3105064
		},
		{
			"buffer":0,
			"byteLength":360,
			"byteOffset":3105424
		},
		{
			"buffer":0,
			"byteLength":480,
			"byteOffset":3105784
		},
		{
			"buffer":0,
			"byteLength":360,
			"byteOffset":3106264
		},
		{
			"buffer":0,
			"byteLength":360,
			"byteOffset":3106624
		},
		{
			"buffer":0,
			"byteLength":480,
			"byteOffset":3106984
		},
		{
			"buffer":0,
			"byteLength":360,
			"byteOffset":3107464
		},
		{
			"buffer":0,
			"byteLength":360,
			"byteOffset":3107824
		},
		{
			"buffer":0,
			"byteLength":480,
			"byteOffset":3108184
		},
		{
			"buffer":0,
			"byteLength":360,
			"byteOffset":3108664
		},
		{
			"buffer":0,
			"byteLength":360,
			"byteOffset":3109024
		},
		{
			"buffer":0,
			"byteLength":480,
			"byteOffset":3109384
		},
		{
			"buffer":0,
			"byteLength":360,
			"byteOffset":3109864
		},
		{
			"buffer":0,
			"byteLength":360,
			"byteOffset":3110224
		},
		{
			"buffer":0,
			"byteLength":480,
			"byteOffset":3110584
		},
		{
			"buffer":0,
			"byteLength":360,
			"byteOffset":3111064
		},
		{
			"buffer":0,
			"byteLength":360,
			"byteOffset":3111424
		},
		{
			"buffer":0,
			"byteLength":480,
			"byteOffset":3111784
		},
		{
			"buffer":0,
			"byteLength":360,
			"byteOffset":3112264
		},
		{
			"buffer":0,
			"byteLength":360,
			"byteOffset":3112624
		},
		{
			"buffer":0,
			"byteLength":480,
			"byteOffset":3112984
		},
		{
			"buffer":0,
			"byteLength":360,
			"byteOffset":3113464
		},
		{
			"buffer":0,
			"byteLength":360,
			"byteOffset":3113824
		},
		{
			"buffer":0,
			"byteLength":480,
			"byteOffset":3114184
		},
		{
			"buffer":0,
			"byteLength":360,
			"byteOffset":3114664
		},
		{
			"buffer":0,
			"byteLength":240,
			"byteOffset":3115024
		},
		{
			"buffer":0,
			"byteLength":720,
			"byteOffset":3115264
		},
		{
			"buffer":0,
			"byteLength":960,
			"byteOffset":3115984
		},
		{
			"buffer":0,
			"byteLength":720,
			"byteOffset":3116944
		},
		{
			"buffer":0,
			"byteLength":720,
			"byteOffset":3117664
		},
		{
			"buffer":0,
			"byteLength":960,
			"byteOffset":3118384
		},
		{
			"buffer":0,
			"byteLength":720,
			"byteOffset":3119344
		},
		{
			"buffer":0,
			"byteLength":720,
			"byteOffset":3120064
		},
		{
			"buffer":0,
			"byteLength":960,
			"byteOffset":3120784
		},
		{
			"buffer":0,
			"byteLength":720,
			"byteOffset":3121744
		},
		{
			"buffer":0,
			"byteLength":720,
			"byteOffset":3122464
		},
		{
			"buffer":0,
			"byteLength":960,
			"byteOffset":3123184
		},
		{
			"buffer":0,
			"byteLength":720,
			"byteOffset":3124144
		},
		{
			"buffer":0,
			"byteLength":720,
			"byteOffset":3124864
		},
		{
			"buffer":0,
			"byteLength":960,
			"byteOffset":3125584
		},
		{
			"buffer":0,
			"byteLength":720,
			"byteOffset":3126544
		},
		{
			"buffer":0,
			"byteLength":720,
			"byteOffset":3127264
		},
		{
			"buffer":0,
			"byteLength":960,
			"byteOffset":3127984
		},
		{
			"buffer":0,
			"byteLength":720,
			"byteOffset":3128944
		},
		{
			"buffer":0,
			"byteLength":720,
			"byteOffset":3129664
		},
		{
			"buffer":0,
			"byteLength":960,
			"byteOffset":3130384
		},
		{
			"buffer":0,
			"byteLength":720,
			"byteOffset":3131344
		},
		{
			"buffer":0,
			"byteLength":720,
			"byteOffset":3132064
		},
		{
			"buffer":0,
			"byteLength":960,
			"byteOffset":3132784
		},
		{
			"buffer":0,
			"byteLength":720,
			"byteOffset":3133744
		},
		{
			"buffer":0,
			"byteLength":720,
			"byteOffset":3134464
		},
		{
			"buffer":0,
			"byteLength":960,
			"byteOffset":3135184
		},
		{
			"buffer":0,
			"byteLength":720,
			"byteOffset":3136144
		},
		{
			"buffer":0,
			"byteLength":720,
			"byteOffset":3136864
		},
		{
			"buffer":0,
			"byteLength":960,
			"byteOffset":3137584
		},
		{
			"buffer":0,
			"byteLength":720,
			"byteOffset":3138544
		},
		{
			"buffer":0,
			"byteLength":720,
			"byteOffset":3139264
		},
		{
			"buffer":0,
			"byteLength":960,
			"byteOffset":3139984
		},
		{
			"buffer":0,
			"byteLength":720,
			"byteOffset":3140944
		},
		{
			"buffer":0,
			"byteLength":720,
			"byteOffset":3141664
		},
		{
			"buffer":0,
			"byteLength":960,
			"byteOffset":3142384
		},
		{
			"buffer":0,
			"byteLength":720,
			"byteOffset":3143344
		},
		{
			"buffer":0,
			"byteLength":720,
			"byteOffset":3144064
		},
		{
			"buffer":0,
			"byteLength":960,
			"byteOffset":3144784
		},
		{
			"buffer":0,
			"byteLength":720,
			"byteOffset":3145744
		},
		{
			"buffer":0,
			"byteLength":720,
			"byteOffset":3146464
		},
		{
			"buffer":0,
			"byteLength":960,
			"byteOffset":3147184
		},
		{
			"buffer":0,
			"byteLength":720,
			"byteOffset":3148144
		},
		{
			"buffer":0,
			"byteLength":720,
			"byteOffset":3148864
		},
		{
			"buffer":0,
			"byteLength":960,
			"byteOffset":3149584
		},
		{
			"buffer":0,
			"byteLength":720,
			"byteOffset":3150544
		},
		{
			"buffer":0,
			"byteLength":720,
			"byteOffset":3151264
		},
		{
			"buffer":0,
			"byteLength":960,
			"byteOffset":3151984
		},
		{
			"buffer":0,
			"byteLength":720,
			"byteOffset":3152944
		},
		{
			"buffer":0,
			"byteLength":720,
			"byteOffset":3153664
		},
		{
			"buffer":0,
			"byteLength":960,
			"byteOffset":3154384
		},
		{
			"buffer":0,
			"byteLength":720,
			"byteOffset":3155344
		},
		{
			"buffer":0,
			"byteLength":720,
			"byteOffset":3156064
		},
		{
			"buffer":0,
			"byteLength":960,
			"byteOffset":3156784
		},
		{
			"buffer":0,
			"byteLength":720,
			"byteOffset":3157744
		},
		{
			"buffer":0,
			"byteLength":720,
			"byteOffset":3158464
		},
		{
			"buffer":0,
			"byteLength":960,
			"byteOffset":3159184
		},
		{
			"buffer":0,
			"byteLength":720,
			"byteOffset":3160144
		},
		{
			"buffer":0,
			"byteLength":720,
			"byteOffset":3160864
		},
		{
			"buffer":0,
			"byteLength":960,
			"byteOffset":3161584
		},
		{
			"buffer":0,
			"byteLength":720,
			"byteOffset":3162544
		},
		{
			"buffer":0,
			"byteLength":720,
			"byteOffset":3163264
		},
		{
			"buffer":0,
			"byteLength":960,
			"byteOffset":3163984
		},
		{
			"buffer":0,
			"byteLength":720,
			"byteOffset":3164944
		},
		{
			"buffer":0,
			"byteLength":720,
			"byteOffset":3165664
		},
		{
			"buffer":0,
			"byteLength":960,
			"byteOffset":3166384
		},
		{
			"buffer":0,
			"byteLength":720,
			"byteOffset":3167344
		},
		{
			"buffer":0,
			"byteLength":720,
			"byteOffset":3168064
		},
		{
			"buffer":0,
			"byteLength":960,
			"byteOffset":3168784
		},
		{
			"buffer":0,
			"byteLength":720,
			"byteOffset":3169744
		},
		{
			"buffer":0,
			"byteLength":720,
			"byteOffset":3170464
		},
		{
			"buffer":0,
			"byteLength":960,
			"byteOffset":3171184
		},
		{
			"buffer":0,
			"byteLength":720,
			"byteOffset":3172144
		},
		{
			"buffer":0,
			"byteLength":720,
			"byteOffset":3172864
		},
		{
			"buffer":0,
			"byteLength":960,
			"byteOffset":3173584
		},
		{
			"buffer":0,
			"byteLength":720,
			"byteOffset":3174544
		},
		{
			"buffer":0,
			"byteLength":720,
			"byteOffset":3175264
		},
		{
			"buffer":0,
			"byteLength":960,
			"byteOffset":3175984
		},
		{
			"buffer":0,
			"byteLength":720,
			"byteOffset":3176944
		},
		{
			"buffer":0,
			"byteLength":720,
			"byteOffset":3177664
		},
		{
			"buffer":0,
			"byteLength":960,
			"byteOffset":3178384
		},
		{
			"buffer":0,
			"byteLength":720,
			"byteOffset":3179344
		},
		{
			"buffer":0,
			"byteLength":720,
			"byteOffset":3180064
		},
		{
			"buffer":0,
			"byteLength":960,
			"byteOffset":3180784
		},
		{
			"buffer":0,
			"byteLength":720,
			"byteOffset":3181744
		},
		{
			"buffer":0,
			"byteLength":720,
			"byteOffset":3182464
		},
		{
			"buffer":0,
			"byteLength":960,
			"byteOffset":3183184
		},
		{
			"buffer":0,
			"byteLength":720,
			"byteOffset":3184144
		},
		{
			"buffer":0,
			"byteLength":720,
			"byteOffset":3184864
		},
		{
			"buffer":0,
			"byteLength":960,
			"byteOffset":3185584
		},
		{
			"buffer":0,
			"byteLength":720,
			"byteOffset":3186544
		}
	],
	"samplers":[
		{
			"magFilter":9729,
			"minFilter":9987
		}
	],
	"buffers":[
		{
			"byteLength":3187264,
			"uri":"standingholdingjaw_separate.bin"
		}
	]
}
